<mxfile host="Electron" modified="2024-02-12T01:46:59.222Z" agent="Mozilla/5.0 (Windows NT 10.0; Win64; x64) AppleWebKit/537.36 (KHTML, like Gecko) draw.io/22.1.16 Chrome/120.0.6099.109 Electron/28.1.0 Safari/537.36" etag="6_1R0075UA4ZUVJ7qwW4" version="22.1.16" type="device">
  <diagram name="Page-1" id="IJ5ov-cX9wlSROaLFNfM">
    <mxGraphModel dx="1015" dy="993" grid="1" gridSize="10" guides="1" tooltips="1" connect="1" arrows="1" fold="1" page="1" pageScale="1" pageWidth="850" pageHeight="1100" math="0" shadow="0">
      <root>
        <mxCell id="0" />
        <mxCell id="1" parent="0" />
        <mxCell id="ZK1OFB4ILHM7DxSyXFdJ-23" value="6. Update endpoint" style="edgeStyle=orthogonalEdgeStyle;rounded=0;orthogonalLoop=1;jettySize=auto;html=1;" edge="1" parent="1" source="ZK1OFB4ILHM7DxSyXFdJ-1" target="ZK1OFB4ILHM7DxSyXFdJ-3">
          <mxGeometry x="0.0518" relative="1" as="geometry">
            <Array as="points">
              <mxPoint x="339" y="410" />
              <mxPoint x="609" y="410" />
            </Array>
            <mxPoint as="offset" />
          </mxGeometry>
        </mxCell>
        <mxCell id="ZK1OFB4ILHM7DxSyXFdJ-1" value="Administrator" style="sketch=0;outlineConnect=0;fontColor=#232F3E;gradientColor=none;fillColor=#232F3D;strokeColor=none;dashed=0;verticalLabelPosition=top;verticalAlign=bottom;align=center;html=1;fontSize=12;fontStyle=0;aspect=fixed;pointerEvents=1;shape=mxgraph.aws4.authenticated_user;labelPosition=center;" vertex="1" parent="1">
          <mxGeometry x="300" y="280" width="78" height="78" as="geometry" />
        </mxCell>
        <mxCell id="ZK1OFB4ILHM7DxSyXFdJ-2" value="Application" style="sketch=0;outlineConnect=0;fontColor=#232F3E;gradientColor=none;fillColor=#232F3D;strokeColor=none;dashed=0;verticalLabelPosition=bottom;verticalAlign=top;align=center;html=1;fontSize=12;fontStyle=0;aspect=fixed;pointerEvents=1;shape=mxgraph.aws4.client;" vertex="1" parent="1">
          <mxGeometry x="300" y="474" width="78" height="76" as="geometry" />
        </mxCell>
        <mxCell id="ZK1OFB4ILHM7DxSyXFdJ-7" value="sa-east-1" style="points=[[0,0],[0.25,0],[0.5,0],[0.75,0],[1,0],[1,0.25],[1,0.5],[1,0.75],[1,1],[0.75,1],[0.5,1],[0.25,1],[0,1],[0,0.75],[0,0.5],[0,0.25]];outlineConnect=0;gradientColor=none;html=1;whiteSpace=wrap;fontSize=12;fontStyle=0;container=1;pointerEvents=0;collapsible=0;recursiveResize=0;shape=mxgraph.aws4.group;grIcon=mxgraph.aws4.group_region;strokeColor=#00A4A6;fillColor=none;verticalAlign=top;align=left;spacingLeft=30;fontColor=#147EBA;dashed=1;" vertex="1" parent="1">
          <mxGeometry x="430" y="254" width="660" height="346" as="geometry" />
        </mxCell>
        <mxCell id="ZK1OFB4ILHM7DxSyXFdJ-18" value="5. Send email" style="edgeStyle=orthogonalEdgeStyle;rounded=0;orthogonalLoop=1;jettySize=auto;html=1;" edge="1" parent="ZK1OFB4ILHM7DxSyXFdJ-7" source="ZK1OFB4ILHM7DxSyXFdJ-6" target="ZK1OFB4ILHM7DxSyXFdJ-16">
          <mxGeometry relative="1" as="geometry" />
        </mxCell>
        <mxCell id="ZK1OFB4ILHM7DxSyXFdJ-16" value="email" style="sketch=0;outlineConnect=0;fontColor=#232F3E;gradientColor=none;fillColor=#232F3D;strokeColor=none;dashed=0;verticalLabelPosition=bottom;verticalAlign=top;align=center;html=1;fontSize=12;fontStyle=0;aspect=fixed;pointerEvents=1;shape=mxgraph.aws4.email_2;" vertex="1" parent="ZK1OFB4ILHM7DxSyXFdJ-7">
          <mxGeometry x="20" y="48" width="54.12" height="34" as="geometry" />
        </mxCell>
        <mxCell id="ZK1OFB4ILHM7DxSyXFdJ-5" value="Lambda" style="sketch=0;points=[[0,0,0],[0.25,0,0],[0.5,0,0],[0.75,0,0],[1,0,0],[0,1,0],[0.25,1,0],[0.5,1,0],[0.75,1,0],[1,1,0],[0,0.25,0],[0,0.5,0],[0,0.75,0],[1,0.25,0],[1,0.5,0],[1,0.75,0]];outlineConnect=0;fontColor=#232F3E;fillColor=#ED7100;strokeColor=#ffffff;dashed=0;verticalLabelPosition=bottom;verticalAlign=top;align=center;html=1;fontSize=12;fontStyle=0;aspect=fixed;shape=mxgraph.aws4.resourceIcon;resIcon=mxgraph.aws4.lambda;" vertex="1" parent="ZK1OFB4ILHM7DxSyXFdJ-7">
          <mxGeometry x="550" y="220" width="78" height="78" as="geometry" />
        </mxCell>
        <mxCell id="ZK1OFB4ILHM7DxSyXFdJ-3" value="Parameter Store" style="sketch=0;outlineConnect=0;fontColor=#232F3E;gradientColor=none;fillColor=#E7157B;strokeColor=none;dashed=0;verticalLabelPosition=bottom;verticalAlign=top;align=center;html=1;fontSize=12;fontStyle=0;aspect=fixed;pointerEvents=1;shape=mxgraph.aws4.parameter_store;" vertex="1" parent="ZK1OFB4ILHM7DxSyXFdJ-7">
          <mxGeometry x="141.84" y="220" width="75" height="78" as="geometry" />
        </mxCell>
        <mxCell id="ZK1OFB4ILHM7DxSyXFdJ-6" value="SNS" style="sketch=0;points=[[0,0,0],[0.25,0,0],[0.5,0,0],[0.75,0,0],[1,0,0],[0,1,0],[0.25,1,0],[0.5,1,0],[0.75,1,0],[1,1,0],[0,0.25,0],[0,0.5,0],[0,0.75,0],[1,0.25,0],[1,0.5,0],[1,0.75,0]];outlineConnect=0;fontColor=#232F3E;fillColor=#E7157B;strokeColor=#ffffff;dashed=0;verticalLabelPosition=bottom;verticalAlign=top;align=center;html=1;fontSize=12;fontStyle=0;aspect=fixed;shape=mxgraph.aws4.resourceIcon;resIcon=mxgraph.aws4.sns;" vertex="1" parent="ZK1OFB4ILHM7DxSyXFdJ-7">
          <mxGeometry x="342" y="26" width="78" height="78" as="geometry" />
        </mxCell>
        <mxCell id="ZK1OFB4ILHM7DxSyXFdJ-15" value="4. Notify" style="edgeStyle=orthogonalEdgeStyle;rounded=0;orthogonalLoop=1;jettySize=auto;html=1;entryX=1;entryY=0.5;entryDx=0;entryDy=0;entryPerimeter=0;" edge="1" parent="ZK1OFB4ILHM7DxSyXFdJ-7" source="ZK1OFB4ILHM7DxSyXFdJ-5" target="ZK1OFB4ILHM7DxSyXFdJ-6">
          <mxGeometry x="0.2593" relative="1" as="geometry">
            <Array as="points">
              <mxPoint x="589" y="65" />
            </Array>
            <mxPoint as="offset" />
          </mxGeometry>
        </mxCell>
        <mxCell id="ZK1OFB4ILHM7DxSyXFdJ-21" style="edgeStyle=orthogonalEdgeStyle;rounded=0;orthogonalLoop=1;jettySize=auto;html=1;" edge="1" parent="ZK1OFB4ILHM7DxSyXFdJ-7" source="ZK1OFB4ILHM7DxSyXFdJ-3" target="ZK1OFB4ILHM7DxSyXFdJ-4">
          <mxGeometry relative="1" as="geometry" />
        </mxCell>
        <mxCell id="ZK1OFB4ILHM7DxSyXFdJ-4" value="Aurora&lt;br&gt;(Global)" style="sketch=0;points=[[0,0,0],[0.25,0,0],[0.5,0,0],[0.75,0,0],[1,0,0],[0,1,0],[0.25,1,0],[0.5,1,0],[0.75,1,0],[1,1,0],[0,0.25,0],[0,0.5,0],[0,0.75,0],[1,0.25,0],[1,0.5,0],[1,0.75,0]];outlineConnect=0;fontColor=#232F3E;fillColor=#C925D1;strokeColor=#ffffff;dashed=0;verticalLabelPosition=top;verticalAlign=bottom;align=center;html=1;fontSize=12;fontStyle=0;aspect=fixed;shape=mxgraph.aws4.resourceIcon;resIcon=mxgraph.aws4.aurora;labelPosition=center;" vertex="1" parent="ZK1OFB4ILHM7DxSyXFdJ-7">
          <mxGeometry x="342" y="220" width="78" height="78" as="geometry" />
        </mxCell>
        <mxCell id="ZK1OFB4ILHM7DxSyXFdJ-11" value="3. health check" style="edgeStyle=orthogonalEdgeStyle;rounded=0;orthogonalLoop=1;jettySize=auto;html=1;entryX=1;entryY=0.5;entryDx=0;entryDy=0;entryPerimeter=0;" edge="1" parent="ZK1OFB4ILHM7DxSyXFdJ-7" source="ZK1OFB4ILHM7DxSyXFdJ-5" target="ZK1OFB4ILHM7DxSyXFdJ-4">
          <mxGeometry relative="1" as="geometry" />
        </mxCell>
        <mxCell id="ZK1OFB4ILHM7DxSyXFdJ-9" value="2. Failover" style="shape=mxgraph.mockup.markup.redX;fillColor=#ff0000;html=1;shadow=0;whiteSpace=wrap;strokeColor=none;labelPosition=center;verticalLabelPosition=bottom;align=center;verticalAlign=top;" vertex="1" parent="ZK1OFB4ILHM7DxSyXFdJ-7">
          <mxGeometry x="270" y="230.25" width="65.71" height="57.5" as="geometry" />
        </mxCell>
        <mxCell id="ZK1OFB4ILHM7DxSyXFdJ-19" style="edgeStyle=orthogonalEdgeStyle;rounded=0;orthogonalLoop=1;jettySize=auto;html=1;" edge="1" parent="1" source="ZK1OFB4ILHM7DxSyXFdJ-16" target="ZK1OFB4ILHM7DxSyXFdJ-1">
          <mxGeometry relative="1" as="geometry" />
        </mxCell>
        <mxCell id="ZK1OFB4ILHM7DxSyXFdJ-10" value="1. get Aurora endpoint" style="edgeStyle=orthogonalEdgeStyle;rounded=0;orthogonalLoop=1;jettySize=auto;html=1;" edge="1" parent="1" source="ZK1OFB4ILHM7DxSyXFdJ-2" target="ZK1OFB4ILHM7DxSyXFdJ-3">
          <mxGeometry x="0.1614" relative="1" as="geometry">
            <mxPoint x="398.0047616392529" y="512" as="sourcePoint" />
            <mxPoint as="offset" />
          </mxGeometry>
        </mxCell>
        <mxCell id="ZK1OFB4ILHM7DxSyXFdJ-24" value="us-east-1" style="points=[[0,0],[0.25,0],[0.5,0],[0.75,0],[1,0],[1,0.25],[1,0.5],[1,0.75],[1,1],[0.75,1],[0.5,1],[0.25,1],[0,1],[0,0.75],[0,0.5],[0,0.25]];outlineConnect=0;gradientColor=none;html=1;whiteSpace=wrap;fontSize=12;fontStyle=0;container=1;pointerEvents=0;collapsible=0;recursiveResize=0;shape=mxgraph.aws4.group;grIcon=mxgraph.aws4.group_region;strokeColor=#00A4A6;fillColor=none;verticalAlign=top;align=left;spacingLeft=30;fontColor=#147EBA;dashed=1;" vertex="1" parent="1">
          <mxGeometry x="430" y="650" width="660" height="316" as="geometry" />
        </mxCell>
        <mxCell id="ZK1OFB4ILHM7DxSyXFdJ-32" value="Aurora&lt;br&gt;(Global)" style="sketch=0;points=[[0,0,0],[0.25,0,0],[0.5,0,0],[0.75,0,0],[1,0,0],[0,1,0],[0.25,1,0],[0.5,1,0],[0.75,1,0],[1,1,0],[0,0.25,0],[0,0.5,0],[0,0.75,0],[1,0.25,0],[1,0.5,0],[1,0.75,0]];outlineConnect=0;fontColor=#232F3E;fillColor=#C925D1;strokeColor=#ffffff;dashed=0;verticalLabelPosition=bottom;verticalAlign=top;align=center;html=1;fontSize=12;fontStyle=0;aspect=fixed;shape=mxgraph.aws4.resourceIcon;resIcon=mxgraph.aws4.aurora;" vertex="1" parent="ZK1OFB4ILHM7DxSyXFdJ-24">
          <mxGeometry x="342" y="82" width="78" height="78" as="geometry" />
        </mxCell>
        <mxCell id="ZK1OFB4ILHM7DxSyXFdJ-35" value="replication" style="edgeStyle=orthogonalEdgeStyle;rounded=0;orthogonalLoop=1;jettySize=auto;html=1;startArrow=classic;startFill=1;" edge="1" parent="1" source="ZK1OFB4ILHM7DxSyXFdJ-4" target="ZK1OFB4ILHM7DxSyXFdJ-32">
          <mxGeometry x="-0.2444" y="-1" relative="1" as="geometry">
            <mxPoint as="offset" />
          </mxGeometry>
        </mxCell>
        <mxCell id="ZK1OFB4ILHM7DxSyXFdJ-37" value="promote" style="edgeStyle=orthogonalEdgeStyle;rounded=0;orthogonalLoop=1;jettySize=auto;html=1;entryX=0;entryY=0.75;entryDx=0;entryDy=0;entryPerimeter=0;" edge="1" parent="1" source="ZK1OFB4ILHM7DxSyXFdJ-1" target="ZK1OFB4ILHM7DxSyXFdJ-32">
          <mxGeometry x="0.5076" relative="1" as="geometry">
            <Array as="points">
              <mxPoint x="260" y="319" />
              <mxPoint x="260" y="791" />
            </Array>
            <mxPoint as="offset" />
          </mxGeometry>
        </mxCell>
        <mxCell id="ZK1OFB4ILHM7DxSyXFdJ-38" style="edgeStyle=orthogonalEdgeStyle;rounded=0;orthogonalLoop=1;jettySize=auto;html=1;entryX=0;entryY=0.25;entryDx=0;entryDy=0;entryPerimeter=0;" edge="1" parent="1" source="ZK1OFB4ILHM7DxSyXFdJ-3" target="ZK1OFB4ILHM7DxSyXFdJ-32">
          <mxGeometry relative="1" as="geometry">
            <Array as="points">
              <mxPoint x="609" y="752" />
              <mxPoint x="709" y="752" />
            </Array>
          </mxGeometry>
        </mxCell>
      </root>
    </mxGraphModel>
  </diagram>
</mxfile>
